<svg id="icons_Q2" data-name="icons Q2" xmlns="http://www.w3.org/2000/svg" width="17.643" height="17.599" viewBox="0 0 17.643 17.599">
  <path id="Path_364" data-name="Path 364" d="M21.643,4.982V20.773a.132.132,0,0,1-.044.088.838.838,0,0,1-.794.794H16.174V14.862h2.161c.132,0,.132,0,.176-.132l.132-1.1c.044-.441.088-.882.176-1.323s0-.132-.088-.132H16.174v-1.72c0-.132.044-.309.044-.441a.794.794,0,0,1,.706-.706l.573-.088H18.82c.088,0,.088,0,.088-.088V6.879c0-.044,0-.088-.088-.088H16.791a3.176,3.176,0,0,0-1.456.309,2.646,2.646,0,0,0-1.544,1.367,3.22,3.22,0,0,0-.353,1.588c-.044.662,0,1.367,0,2.073H11.19c-.088,0-.088.044-.088.088V14.73c0,.088,0,.088.088.088h2.249v6.793a.132.132,0,0,0-.044.088H4.838a.838.838,0,0,1-.794-.794C4,20.905,4,20.861,4,20.817V4.982c0-.044,0-.088.044-.088A.838.838,0,0,1,4.838,4.1H20.805a.838.838,0,0,1,.794.794Z" transform="translate(-4 -4.1)" fill="#f9c82d"/>
</svg>
