<svg version="1.2" xmlns="http://www.w3.org/2000/svg" viewBox="0 0 18 18" width="18" height="18">
	<title>Facebook-svg</title>
	<style>
		.s0 { fill: #ed3237 } 
	</style>
	<path id="Path_364" class="s0" d="m17.6 0.9v15.8q0 0 0 0q0 0 0 0q0 0 0 0q0 0.1 0 0.1q0 0.1-0.1 0.3q0 0.1-0.1 0.2q-0.2 0.1-0.3 0.2q-0.1 0-0.3 0.1h-4.6v-6.8h2.1c0.2 0 0.2 0 0.2-0.2l0.1-1.1q0.1-0.6 0.2-1.3c0.1-0.4 0-0.1-0.1-0.1h-2.5v-1.7c0-0.2 0-0.4 0-0.5q0-0.1 0.1-0.2q0-0.2 0.1-0.3q0.1-0.1 0.3-0.1q0.1-0.1 0.2-0.1l0.6-0.1h1.3c0.1 0 0.1 0 0.1-0.1v-2.2c0-0.1 0-0.1-0.1-0.1h-2q-0.2 0-0.4 0q-0.2 0-0.4 0.1q-0.1 0-0.3 0.1q-0.2 0-0.4 0.1q-0.2 0.1-0.4 0.2q-0.3 0.2-0.5 0.3q-0.2 0.2-0.3 0.4q-0.2 0.2-0.3 0.5q-0.1 0.2-0.2 0.3q0 0.2-0.1 0.4q0 0.2-0.1 0.4q0 0.2 0 0.5c0 0.6 0 1.3 0 2h-2.2c-0.1 0-0.1 0.1-0.1 0.1v2.5c0 0.1 0 0.1 0.1 0.1h2.2v6.8q0 0 0 0q0 0 0 0.1q0 0 0 0q0 0 0 0h-8.6q-0.1 0-0.3-0.1q-0.1 0-0.2-0.1q-0.1-0.2-0.2-0.3q0-0.1-0.1-0.3q0 0 0-0.1v-15.8q0-0.1 0-0.1q0.1-0.2 0.1-0.3q0.1-0.1 0.2-0.3q0.1-0.1 0.2-0.1q0.2-0.1 0.3-0.1h16q0.2 0 0.3 0.1q0.1 0 0.3 0.1q0.1 0.2 0.1 0.3q0.1 0.1 0.1 0.3z" />
</svg>