<svg version="1.2" xmlns="http://www.w3.org/2000/svg" viewBox="0 0 18 18" width="18" height="18">
	<title>LinkedIn-svg</title>
	<style>
		.s0 { fill: #ed3237 } 
	</style>
	<path id="Path_359" fill-rule="evenodd" class="s0" d="m16.8 0.1q0.2 0.1 0.4 0.3q0.2 0.2 0.3 0.4q0.1 0.2 0.1 0.5v15q0 0.3-0.1 0.5q-0.1 0.2-0.3 0.4q-0.2 0.2-0.4 0.3q-0.2 0.1-0.5 0.1h-15q-0.2 0-0.5-0.1q-0.2-0.1-0.4-0.3q-0.2-0.1-0.3-0.4q-0.1-0.2-0.1-0.5v-15q0-0.3 0.1-0.5q0.1-0.3 0.3-0.4q0.2-0.2 0.4-0.3q0.3-0.1 0.5-0.1h15q0.3 0 0.5 0.1zm-11.6 6.5h-2.6v8.4h2.6zm-0.7-1.3q0.3-0.1 0.5-0.3q0.2-0.2 0.3-0.5q0.1-0.3 0.1-0.6c0-0.4-0.1-0.8-0.4-1.1c-0.3-0.2-0.7-0.4-1.1-0.4c-0.4 0-0.8 0.2-1 0.4c-0.3 0.3-0.5 0.7-0.5 1.1q0 0.3 0.1 0.6q0.2 0.3 0.4 0.5q0.2 0.2 0.4 0.3q0.3 0.1 0.6 0.2q0.3-0.1 0.6-0.2zm10.5 5.1c0-2.3-0.5-4-3.1-4q-0.4 0-0.8 0.1q-0.3 0-0.7 0.2q-0.3 0.2-0.5 0.5q-0.3 0.2-0.5 0.5v-1.1h-2.5v8.4h2.6v-4.2c0-1.1 0.2-2.1 1.5-2.1c1.4 0 1.4 1.2 1.4 2.2v4.1h2.6z" />
</svg>