<svg id="icons_Q2" data-name="icons Q2" xmlns="http://www.w3.org/2000/svg" width="17.599" height="17.601" viewBox="0 0 17.599 17.601">
  <path id="Path_359" data-name="Path 359" d="M20.32,4.1h-15A1.279,1.279,0,0,0,4,5.378V20.419A1.279,1.279,0,0,0,5.323,21.7h15A1.279,1.279,0,0,0,21.6,20.419V5.378A1.279,1.279,0,0,0,20.32,4.1ZM9.249,19.1H6.6v-8.38H9.249ZM7.926,9.568a1.544,1.544,0,0,1-1.5-1.544,1.5,1.5,0,1,1,3,0,1.544,1.544,0,0,1-1.5,1.544ZM19,19.1h-2.6v-4.1c0-.97,0-2.205-1.367-2.205s-1.544,1.059-1.544,2.161V19.1h-2.6v-8.38h2.47v1.147h.044a2.735,2.735,0,0,1,2.47-1.367c2.646,0,3.132,1.72,3.132,4.014Z" transform="translate(-4 -4.098)" fill="#f9c82d" />
</svg>
