<svg version="1.2" xmlns="http://www.w3.org/2000/svg" viewBox="0 0 19 19" width="19" height="19">
	<title>Pinterest-svg</title>
	<style>
		.s0 { fill: #ed3237 } 
	</style>
	<path id="Path_360" class="s0" d="m0 9.3q0-0.9 0.2-1.8q0.2-0.9 0.5-1.8q0.4-0.8 0.9-1.6q0.5-0.8 1.2-1.4c1.3-1.3 2.9-2.2 4.7-2.5c1.8-0.4 3.7-0.2 5.4 0.5c1.6 0.7 3.1 1.9 4.1 3.4c1 1.6 1.5 3.4 1.5 5.2q0 0.9-0.2 1.8q-0.1 0.9-0.5 1.8q-0.3 0.8-0.9 1.6q-0.5 0.7-1.2 1.4q-0.6 0.6-1.3 1.1q-0.8 0.5-1.6 0.8q-0.9 0.4-1.7 0.6q-0.9 0.1-1.8 0.1q-0.4 0-0.7 0q-0.3 0-0.7-0.1q-0.3 0-0.6-0.1q-0.3-0.1-0.6-0.2q0-0.1 0.1-0.2q0.1-0.1 0.1-0.2q0.1-0.1 0.1-0.2q0.1-0.2 0.1-0.3q0.2-0.3 0.3-0.5q0.1-0.3 0.2-0.6q0.1-0.3 0.2-0.6q0-0.3 0.1-0.6c0-0.3 0.2-0.7 0.3-1.3q0.1 0.2 0.2 0.3q0.1 0.1 0.2 0.2q0.1 0.1 0.2 0.2q0.2 0.1 0.3 0.1q0.4 0.2 0.8 0.3q0.5 0.1 0.9 0.1q0.5 0 0.9-0.1q0.4-0.2 0.8-0.4q0.5-0.3 0.9-0.6q0.4-0.4 0.7-0.8q0.4-0.5 0.6-0.9q0.3-0.5 0.4-1q0.2-0.6 0.3-1.2q0-0.5 0-1.1q0-0.6-0.1-1.1q-0.1-0.6-0.3-1.1q-0.2-0.5-0.5-0.9q-0.3-0.5-0.7-0.9q-0.4-0.4-0.8-0.7q-0.5-0.3-1-0.5q-0.6-0.1-1.2-0.2q-0.7-0.1-1.3-0.1q-0.7 0-1.3 0.2q-0.7 0.1-1.3 0.3q-0.6 0.2-1.1 0.5q-0.5 0.3-1 0.7q-0.4 0.4-0.8 0.9q-0.3 0.5-0.6 1.1q0 0.2-0.1 0.4q0 0.2-0.1 0.4q0 0.2 0 0.4q-0.1 0.2-0.1 0.4q0 0.2 0 0.4q0 0.2 0 0.4q0 0.2 0 0.4q0.1 0.2 0.1 0.4q0 0.2 0.1 0.4q0 0.2 0.1 0.4q0 0.1 0.1 0.3q0.1 0.2 0.2 0.3q0.2 0.2 0.3 0.3q0.1 0.2 0.3 0.3q0.1 0.1 0.3 0.2q0.1 0.1 0.3 0.2q0 0 0.1 0q0 0 0 0q0.1 0 0.1 0q0 0 0.1 0q0-0.1 0.1-0.2q0 0 0.1-0.1q0-0.1 0-0.2q0.1 0 0.1-0.1q0-0.1 0-0.2q0-0.1 0.1-0.1q0-0.1 0-0.2q0-0.1 0-0.2q0 0-0.1-0.1q0 0 0 0q0-0.1 0-0.1q0 0-0.1 0q-0.2-0.3-0.3-0.6q-0.1-0.4-0.2-0.7q0-0.3 0-0.7q0-0.3 0-0.6q0.1-0.4 0.2-0.7q0.1-0.3 0.2-0.6q0.2-0.3 0.3-0.5q0.2-0.3 0.4-0.5q0.4-0.3 0.7-0.6q0.4-0.2 0.8-0.4q0.4-0.1 0.8-0.2q0.4-0.1 0.9-0.1q0.4-0.1 0.8 0q0.4 0 0.8 0.1q0.4 0.2 0.7 0.4q0.4 0.2 0.7 0.5q0.2 0.2 0.3 0.4q0.2 0.2 0.3 0.4q0.1 0.3 0.2 0.5q0.1 0.3 0.1 0.6q0 0.2 0.1 0.5q0 0.3 0 0.5q0 0.3 0 0.6q-0.1 0.2-0.1 0.5q0 0.3-0.1 0.5q-0.1 0.3-0.2 0.5q-0.1 0.3-0.2 0.5q-0.1 0.2-0.2 0.5q-0.2 0.3-0.4 0.5q-0.2 0.3-0.5 0.4q-0.3 0.2-0.6 0.4q-0.3 0.1-0.6 0.1q-0.2 0-0.4 0q-0.1-0.1-0.3-0.2q-0.1 0-0.3-0.1q-0.1-0.1-0.2-0.3q-0.1-0.1-0.2-0.2q-0.1-0.2-0.1-0.3q-0.1-0.2 0-0.4q0-0.1 0-0.3q0.1-0.2 0.1-0.4q0.1-0.2 0.1-0.4q0.1-0.2 0.1-0.4q0.1-0.2 0.2-0.3q0-0.3 0.1-0.5q0-0.2 0.1-0.4q0-0.2 0.1-0.4q0-0.2 0.1-0.5c-0.1-0.9-0.5-1.4-1.3-1.4q-0.2 0-0.4 0.1q-0.2 0.1-0.4 0.2q-0.1 0.1-0.3 0.2q-0.1 0.2-0.2 0.3q-0.2 0.2-0.2 0.4q-0.1 0.2-0.2 0.4q-0.1 0.2-0.1 0.4q0 0.2 0 0.5q0 0.1 0 0.3q0 0.2 0.1 0.4q0 0.2 0.1 0.4q0 0.1 0.1 0.3q-0.4 1.6-0.6 2.6l-0.4 1.6q-0.1 0.2-0.1 0.4q-0.1 0.3-0.1 0.5q-0.1 0.3-0.1 0.5q-0.1 0.3-0.1 0.5v1.1q-0.6-0.3-1.2-0.7q-0.5-0.3-1-0.8q-0.5-0.4-1-0.9q-0.4-0.5-0.8-1.1q-0.4-0.5-0.7-1.1q-0.2-0.7-0.4-1.3q-0.2-0.6-0.3-1.3q-0.1-0.7-0.1-1.3z" />
</svg>