<svg id="icons_Q2" data-name="icons Q2" xmlns="http://www.w3.org/2000/svg" width="18.526" height="18.545" viewBox="0 0 18.526 18.545">
  <path id="Path_360" data-name="Path 360" d="M3,12.238A9,9,0,0,1,5.778,5.666a9.219,9.219,0,0,1,15.746,6.572,9.042,9.042,0,0,1-2.779,6.572A9.174,9.174,0,0,1,12.262,21.5a8.866,8.866,0,0,1-2.6-.4,4.543,4.543,0,0,0,.485-.926,12.35,12.35,0,0,0,.75-2.294c.044-.309.176-.75.309-1.279a2.25,2.25,0,0,0,.882.794,3.661,3.661,0,0,0,3.44-.132,5.778,5.778,0,0,0,2.6-3.352,6.969,6.969,0,0,0-.176-4.455A5.2,5.2,0,0,0,15.041,6.5a8.116,8.116,0,0,0-5.117.176A5.778,5.778,0,0,0,6.44,9.856a7.1,7.1,0,0,0-.309,1.632,9.263,9.263,0,0,0,.044,1.588,3.088,3.088,0,0,0,.573,1.411,2.691,2.691,0,0,0,1.147.926.265.265,0,0,0,.265,0,.926.926,0,0,0,.309-.573,1.411,1.411,0,0,0,.088-.662.4.4,0,0,0-.132-.265,3.617,3.617,0,0,1-.485-2.6,4.323,4.323,0,0,1,1.1-2.294,4.852,4.852,0,0,1,3.132-1.279,3.926,3.926,0,0,1,3.043.97,3.617,3.617,0,0,1,.882,1.9,5.91,5.91,0,0,1,0,2.161,6.043,6.043,0,0,1-.706,1.941,2.735,2.735,0,0,1-2.117,1.456,1.72,1.72,0,0,1-1.191-.573,1.235,1.235,0,0,1-.265-1.235,12,12,0,0,1,.441-1.544,10.939,10.939,0,0,0,.4-1.72c-.088-.926-.485-1.411-1.279-1.411a1.676,1.676,0,0,0-1.323.794,3.352,3.352,0,0,0-.485,1.632,3.837,3.837,0,0,0,.353,1.456c-.265,1.059-.485,1.941-.618,2.6l-.4,1.544a15.349,15.349,0,0,0-.4,1.985v1.014A9.527,9.527,0,0,1,4.5,17.266,8.866,8.866,0,0,1,3,12.238Z" transform="translate(-2.999 -2.956)" fill="#f9c82d"/>
</svg>
