<svg version="1.2" xmlns="http://www.w3.org/2000/svg" viewBox="0 0 20 16" width="20" height="16">
	<title>Twitter-svg</title>
	<style>
		.s0 { fill: #ed3237 } 
	</style>
	<path id="Path_365" class="s0" d="m19 2.4q-0.2 0.3-0.5 0.6q-0.2 0.2-0.5 0.4q-0.3 0.3-0.6 0.5v0.6c0 1.5-0.3 2.9-0.8 4.3c-0.6 1.4-1.4 2.7-2.5 3.7c-1 1.1-2.3 1.9-3.7 2.5c-1.3 0.5-2.8 0.8-4.3 0.8q-0.8 0-1.6-0.1q-0.8-0.1-1.6-0.4q-0.8-0.2-1.5-0.5q-0.7-0.4-1.4-0.8h1q0.6 0 1.3-0.1q0.6-0.1 1.3-0.3q0.6-0.2 1.2-0.6q0.6-0.3 1.1-0.7q-0.6 0-1.2-0.2q-0.6-0.2-1.1-0.6q-0.5-0.3-0.9-0.9q-0.3-0.5-0.5-1.1l0.7 0.1q0.1 0 0.3 0q0.1 0 0.2 0q0.2 0 0.3-0.1q0.1 0 0.3 0q-0.7-0.2-1.3-0.5q-0.6-0.4-1-0.9q-0.5-0.6-0.7-1.2q-0.2-0.7-0.2-1.4q0.2 0.1 0.4 0.2q0.2 0.1 0.5 0.2q0.2 0.1 0.4 0.1q0.3 0 0.5 0q-0.4-0.3-0.8-0.6q-0.3-0.4-0.5-0.8q-0.3-0.4-0.4-0.9q-0.1-0.5-0.1-1q0-0.3 0-0.5q0.1-0.3 0.1-0.5q0.1-0.3 0.2-0.5q0.1-0.3 0.3-0.5q0.7 0.9 1.6 1.7q1 0.7 2 1.3q1.1 0.5 2.2 0.8q1.2 0.3 2.4 0.4q-0.1-0.1-0.1-0.3q0-0.1 0-0.2q0-0.1-0.1-0.2q0-0.1 0-0.3c0.1-0.8 0.3-1.5 0.8-2.2c0.4-0.6 1.1-1.1 1.8-1.4c0.7-0.3 1.6-0.4 2.3-0.2c0.8 0.2 1.5 0.6 2.1 1.2q0.3-0.1 0.6-0.2q0.3-0.1 0.7-0.2q0.3-0.2 0.6-0.3q0.3-0.2 0.6-0.3q-0.1 0.3-0.3 0.6q-0.2 0.4-0.4 0.6q-0.2 0.3-0.5 0.6q-0.3 0.2-0.6 0.4q0.3-0.1 0.6-0.1q0.3-0.1 0.6-0.2q0.3 0 0.6-0.1q0.2-0.2 0.5-0.3q-0.2 0.3-0.4 0.6z" />
</svg>