<svg id="icons_Q2" data-name="icons Q2" xmlns="http://www.w3.org/2000/svg" width="19.407" height="15.807" viewBox="0 0 19.407 15.807">
  <path id="Path_365" data-name="Path 365" d="M21.407,7.888a8.072,8.072,0,0,1-2.294.662,4.146,4.146,0,0,0,1.764-2.205,10.233,10.233,0,0,1-2.514.97A4.014,4.014,0,0,0,11.439,10a3.352,3.352,0,0,0,.132.926,11.38,11.38,0,0,1-8.2-4.146A3.749,3.749,0,0,0,2.794,8.77,3.926,3.926,0,0,0,4.6,12.078a3.573,3.573,0,0,1-1.808-.485h0A3.926,3.926,0,0,0,5.97,15.518a3.793,3.793,0,0,1-1.059.176l-.75-.088A4.058,4.058,0,0,0,7.91,18.385a8.028,8.028,0,0,1-4.94,1.676H2A11.071,11.071,0,0,0,8.087,21.87,11.272,11.272,0,0,0,19.423,10.534V9.961a8.072,8.072,0,0,0,1.985-2.073Z" transform="translate(-2 -6.063)" fill="#f9c82d" />
</svg>
