<svg id="icons_Q2" data-name="icons Q2" xmlns="http://www.w3.org/2000/svg" width="19.407" height="13.585" viewBox="0 0 19.407 13.585">
  <path id="Path_361" data-name="Path 361" d="M21.01,10.117A2.426,2.426,0,0,0,19.29,8.4,59.187,59.187,0,0,0,11.7,8a59.187,59.187,0,0,0-7.587.4,2.426,2.426,0,0,0-1.72,1.72A25.744,25.744,0,0,0,2,14.793a25.744,25.744,0,0,0,.4,4.675,2.426,2.426,0,0,0,1.72,1.72,59.187,59.187,0,0,0,7.587.4,59.187,59.187,0,0,0,7.587-.4,2.426,2.426,0,0,0,1.72-1.72,25.744,25.744,0,0,0,.4-4.675A25.744,25.744,0,0,0,21.01,10.117ZM9.763,17.7V11.881l5.028,2.911Z" transform="translate(-2 -8)" fill="#f9c82d" />
</svg>
