<svg version="1.2" xmlns="http://www.w3.org/2000/svg" viewBox="0 0 20 14" width="20" height="14">
	<title>Youtube-svg</title>
	<style>
		.s0 { fill: #ed3237 } 
	</style>
	<path id="Path_361" fill-rule="evenodd" class="s0" d="m19.2 3.3q0.1 0.6 0.1 1.1q0.1 0.6 0.1 1.2q0 0.6 0 1.2q0 0.6 0 1.2q0 0.6-0.1 1.1q0 0.6-0.1 1.2q-0.1 0.6-0.2 1.2q-0.1 0.3-0.2 0.6q-0.2 0.2-0.4 0.5q-0.2 0.2-0.5 0.3q-0.3 0.2-0.6 0.3q-0.9 0.1-1.9 0.2q-0.9 0.1-1.9 0.1q-0.9 0.1-1.9 0.1q-0.9 0-1.9 0q-0.9 0-1.9 0q-0.9 0-1.9-0.1q-0.9 0-1.9-0.1q-0.9-0.1-1.9-0.2q-0.3-0.1-0.6-0.3q-0.2-0.1-0.5-0.3q-0.2-0.3-0.4-0.5q-0.1-0.3-0.2-0.6q-0.1-0.6-0.2-1.2q-0.1-0.6-0.1-1.2q-0.1-0.5-0.1-1.1q0-0.6 0-1.2q0-0.6 0-1.2q0-0.6 0.1-1.2q0-0.5 0.1-1.1q0.1-0.6 0.2-1.2q0.1-0.3 0.2-0.6q0.2-0.2 0.4-0.5q0.2-0.2 0.5-0.4q0.3-0.1 0.6-0.2q1-0.1 1.9-0.2q1-0.1 1.9-0.1q0.9-0.1 1.9-0.1q0.9 0 1.9 0q1 0 1.9 0q1 0 1.9 0.1q1 0 1.9 0.1q0.9 0.1 1.9 0.2q0.3 0.1 0.6 0.2q0.3 0.2 0.5 0.4q0.2 0.3 0.4 0.5q0.1 0.3 0.2 0.6q0.1 0.6 0.2 1.2zm-6.4 3.5l-5-2.9v5.8z" />
</svg>